<?xml version="1.0" encoding="UTF-8"?>
<svg id="_Шар_1" data-name="Шар 1" xmlns="http://www.w3.org/2000/svg" xmlns:xlink="http://www.w3.org/1999/xlink" viewBox="0 0 208 208">
  <defs>
    <style>
      .cls-1 {
        fill: none;
      }

      .cls-2 {
        fill: #fff;
      }

      .cls-2, .cls-3, .cls-4 {
        fill-rule: evenodd;
      }

      .cls-3 {
        fill: #937b41;
      }

      .cls-4 {
        fill: #cf103e;
      }

      .cls-5 {
        clip-path: url(#clippath);
      }
    </style>
    <clipPath id="clippath">
      <rect class="cls-1" x="2.5" y="2.19" width="203" height="203" transform="translate(-2.23 2.29) rotate(-1.25)"/>
    </clipPath>
  </defs>
  <g class="cls-5">
    <g>
      <path class="cls-4" d="M190.7,101.79c5.48-4.91,9.26-11.43,10.82-18.63,1.55-7.19.79-14.69-2.17-21.43-2.96-6.74-7.98-12.36-14.33-16.08-6.35-3.72-13.72-5.33-21.04-4.61.4-7.35-1.53-14.64-5.52-20.83-3.99-6.19-9.83-10.96-16.69-13.62-6.86-2.67-14.39-3.1-21.51-1.23-7.12,1.87-13.47,5.93-18.14,11.62-4.91-5.48-11.43-9.27-18.63-10.82-7.19-1.55-14.7-.79-21.43,2.17-6.74,2.96-12.36,7.98-16.08,14.33s-5.33,13.72-4.61,21.04c-7.35-.4-14.64,1.53-20.82,5.52-6.19,3.99-10.95,9.83-13.62,16.69-2.67,6.86-3.1,14.39-1.24,21.51,1.86,7.12,5.93,13.47,11.62,18.14-5.48,4.91-9.27,11.43-10.82,18.63-1.55,7.19-.8,14.7,2.17,21.43,2.96,6.74,7.98,12.37,14.33,16.08,6.35,3.72,13.72,5.33,21.04,4.62-.39,7.35,1.55,14.63,5.54,20.82,3.99,6.18,9.83,10.95,16.69,13.61,6.86,2.67,14.38,3.1,21.5,1.24,7.12-1.86,13.47-5.92,18.15-11.61,4.92,5.48,11.44,9.26,18.63,10.81,7.19,1.55,14.69.79,21.43-2.18,6.74-2.96,12.36-7.98,16.08-14.33,3.72-6.35,5.33-13.72,4.61-21.04,7.35.4,14.64-1.53,20.82-5.52,6.19-3.99,10.95-9.83,13.62-16.69,2.67-6.86,3.1-14.39,1.23-21.51-1.87-7.12-5.93-13.47-11.62-18.14Z"/>
      <path class="cls-2" d="M184.53,101.93c5.16-4.53,8.74-10.6,10.23-17.3,1.48-6.71.79-13.72-1.97-20s-7.47-11.53-13.42-14.97c-5.95-3.44-12.84-4.89-19.67-4.15.44-6.85-1.32-13.66-5.01-19.45-3.69-5.79-9.13-10.25-15.53-12.74-6.4-2.49-13.42-2.88-20.05-1.11-6.63,1.77-12.53,5.6-16.84,10.95-4.53-5.17-10.59-8.76-17.31-10.26-6.71-1.49-13.73-.8-20.02,1.97-6.29,2.77-11.54,7.47-14.98,13.43-3.44,5.95-4.89,12.85-4.14,19.69-6.86-.44-13.68,1.31-19.47,5-5.79,3.69-10.26,9.14-12.75,15.54-2.49,6.4-2.88,13.43-1.1,20.07,1.78,6.64,5.62,12.54,10.98,16.84-5.16,4.53-8.75,10.6-10.23,17.3-1.49,6.71-.8,13.72,1.97,20.01,2.77,6.29,7.47,11.54,13.42,14.97,5.95,3.44,12.84,4.89,19.67,4.15-.44,6.86,1.31,13.68,5,19.47s9.14,10.26,15.54,12.75c6.4,2.49,13.43,2.88,20.07,1.1,6.64-1.78,12.54-5.62,16.84-10.97,4.53,5.16,10.6,8.74,17.3,10.23,6.71,1.49,13.72.79,20-1.97,6.29-2.77,11.53-7.46,14.97-13.41,3.44-5.95,4.89-12.84,4.15-19.67,6.86.44,13.68-1.31,19.47-5,5.79-3.69,10.26-9.14,12.75-15.54,2.49-6.4,2.88-13.44,1.1-20.07s-5.62-12.54-10.98-16.84"/>
      <path class="cls-4" d="M118.26,171.91h.61c.48-.01.96-.04,1.43-.1.23-.03.45-.15.61-.32.16-.18.24-.41.23-.66,0-.12-.02-.24-.07-.35-.05-.11-.12-.21-.21-.29-.18-.17-.41-.27-.65-.29-.46-.03-.92-.04-1.37-.02h-.61s.03,2.03.03,2.03ZM116.85,176.13l-.16-7.37,1.5-.03c1.5-.03,2.46-.05,2.87,0,.44.05.84.27,1.13.6.34.38.52.88.51,1.39.01.25-.03.51-.11.74-.09.24-.22.46-.4.64-.38.39-.88.64-1.42.71.25.08.48.21.67.38.35.41.66.85.93,1.32l.91,1.47-1.85.04-.64-1.18c-.26-.52-.59-1-.99-1.41-.32-.25-.72-.38-1.12-.35h-.39s.07,3.03.07,3.03h-1.49ZM119.79,166.76c-.72.01-1.44.16-2.1.45-.67.29-1.27.71-1.77,1.23-.53.52-.95,1.15-1.22,1.84-.27.69-.4,1.43-.36,2.18.03,1.48.65,2.89,1.72,3.91,1.07,1.02,2.5,1.58,3.98,1.55,1.48-.03,2.89-.65,3.91-1.72,1.02-1.07,1.58-2.5,1.55-3.98,0-.74-.15-1.48-.46-2.16-.3-.68-.74-1.29-1.3-1.78-.53-.5-1.14-.89-1.82-1.15-.68-.26-1.4-.38-2.13-.36h0ZM119.76,165.4c1.13-.02,2.26.23,3.27.74,1.09.54,2.02,1.37,2.68,2.4.68,1.04,1.07,2.24,1.13,3.47.06,1.24-.21,2.47-.79,3.57-.58,1.1-1.44,2.02-2.49,2.67-1.05.65-2.26,1.01-3.5,1.04-1.24.03-2.46-.28-3.54-.88-1.08-.61-1.98-1.49-2.61-2.56-.62-1.07-.95-2.29-.95-3.53,0-1.24.34-2.46.97-3.52.6-1.02,1.45-1.87,2.47-2.47,1.02-.6,2.18-.93,3.36-.95v.02ZM172.93,110.65c-1.52.76-2.76,1.96-3.56,3.46-.8,1.5-1.12,3.2-.9,4.88.78,7.01,2.94,15.73-3.14,21.17-3.48,3.12-8.15,4.55-12.74,3.47-2.15-.51-4.4-2.32-4.75-4.62-.27-1.46.04-2.96.87-4.19.4-.59.91-1.08,1.51-1.45.6-.37,1.28-.6,1.98-.69.71-.09,1.42.09,2,.49-1.17,1.15-2.22,3.11-1.42,4.74.22.43.56.79.98,1.02.42.23.91.33,1.39.29.48-.02.95-.15,1.38-.37.42-.23.79-.55,1.07-.94,2.32-3.47,1.79-8.17,2.85-12.17.69-2.63,1.6-5.14,2.49-7.65.03-.07.04-.15.04-.23,0-.08-.02-.15-.06-.22-.03-.07-.08-.13-.14-.18-.06-.05-.13-.09-.21-.11-1.04-.17-1.89.96-2.44,1.58l-16.19,18.46c-3.48,3.97-7.83,7.71-13.46,6.71-.92-.19-1.77-.59-2.5-1.18-.73-.59-1.3-1.34-1.68-2.19l-4.82,11.14c3.07,1.37,9.19,2.48,12.66,2.69,5.24.32,10.57.35,15.61-.7,2.04-.4,3.99-1.2,5.72-2.36-.2,1.66-1.44,3.57-1.62,3.8-9.17,12.13-25.38,10.32-38.78,7.8-2.87,3.69-6.28,6.79-10.29,8.74-6.76,3.28-15.85,3.45-22.36-.32-1.61-.92-2.93-2.26-3.81-3.88-.89-1.62-1.3-3.46-1.21-5.31.24-5.22,4.89-9.61,9.36-11.27,8.09-2.99,17.51-2.77,25.86-1.19l3.19-7.37c-3.15,1.83-7.57,4.04-11.29,2.25-1.26-.61-1.63-1.88-2.23-2.97-2.95,1.82-6,4.06-9.84,3.33-2.46-.47-3.77-1.99-4.27-4.29-3.46,3.09-8.07,6.17-12.83,4.26-1.93-.79-2.71-2.81-2.75-4.76-.04-1.8.48-3.39,1.18-5.08l5.45-13.18c1.25-3.02-3.58-3.27-4.57-.92l-9.96,23.92-9.72.19,2.07-4.94c-5.83,4.43-13.37,9.82-21.93,4.82-7.41-4.31-8.11-14.25-6.25-21.98,2.44-10.1,11.64-19.66,21.88-22.26,4.71-1.19,10.21-.86,13.5,3,1.76,2.07,2.21,5.1,1.56,7.74-.54,2.17-2.49,4.25-4.54,5.22-2.68,1.27-8.1,1.56-8.97-2.15,1.65-.37,3.15-1.24,4.29-2.49,1.03-1.14,1.8-2.82,1.09-4.43-.29-.63-.78-1.15-1.39-1.48-.61-.33-1.31-.46-2-.36-5.52.68-9.22,6.04-12.02,10.37-2.88,4.46-4.18,9.69-3.9,15.4.16,3.19,1.74,6.52,4.88,7.73,6.48,2.49,12.8-2.33,17.24-7.25l13.72-32.61,9.5-.25-5.84,14.52c3.25-2.23,7.63-4.42,11.44-1.84,1.51,1.01,1.8,3.1,1.29,4.78-1.93,6.35-5.12,12.27-7.44,18.48-.33.89-.48,1.85.06,2.57.27.34.64.58,1.06.7.42.12.86.11,1.26-.03.74-.2,1.43-.56,2.01-1.05.59-.49,1.06-1.11,1.39-1.8l10.01-24.38,9.44-.21-9.33,23.11c-.14.34-.2.7-.18,1.06.02.36.12.72.29,1.04.19.3.46.55.77.72.31.17.66.26,1.02.26.52-.04,1.01-.21,1.44-.5.43-.29.77-.69,1-1.15l10.26-24.66,9.61-.21-10.34,24.66c-.12.31-.17.64-.14.97.02.33.12.65.28.94.17.29.41.53.71.68.3.15.64.21.97.17,1.35-.06,3.01-.45,3.59-1.84l10.71-25.64,8.74-.19s-.18,1.29-.27,1.77c2.64-1.92,6.41-3.92,9.73-2.05,4.69,2.66,2.29,12.45,2.05,13.56,5.57-3.47,11.39-15.6,20.74-14.62,1.1.11,2.12.63,2.86,1.46v.04ZM133.07,135.71c-.82,1.33-4.43,2.12-4.47.1l-.02-1.12,6.48-15.45c.4-.97,1.41-1.34,2.36-1.49.37-.03.74.05,1.07.22.33.17.6.44.79.76.42.72.35,1.86.12,2.64-1.49,5.02-3.61,9.83-6.32,14.32v.02ZM86.83,167.89c-2.8-1.56-3.2-5.19-.08-6.82,3.12-1.62,7.04-1.38,10.56-1.19,2.89.21,5.76.71,8.55,1.51-3.68,6.66-11.95,10.41-19,6.49h-.02ZM169.21,87.4c-.97,2.47.7,3.73,3.12,3.28.04,1.67-3.07,3.04-5.05,3.54-1.74.43-4.13.68-5.14-.85l-1.26-1.89c-3.07,2.41-8.86,4.5-12.14,1.55-3.39-3.03-1.96-7.61-1.11-10.56-5.57,4.63-10.14,13.17-18.4,11.93-1.44-.22-2.33-1.34-3.27-2.32-3.23,5.53-4.27,14.15-11.97,15.7-2.53.53-5.35.28-7.02-1.58-.23-1.17,1.47-.51,2.22-.86,4.34-1.98,5.98-8.74,7.72-13.01-2.97,2.17-7.71,4.11-11.38,2.1-1.11-.61-2.11-1.8-2.3-1.67-2.65,1.85-7.31,3.54-10.62,1.95-1.15-.55-1.67-1.76-2.13-2.82-3.51,2.21-8.28,4.99-12.47,2.37-.96-.59-1.68-1.49-2.04-2.56-.36-1.06-.33-2.22.08-3.27l5.25-13.07c.91-2.26-3.28-2.56-4.09-.66l-8.53,20.13-8.99.2,1.41-3.67c-5.39,3.84-10.61,6.45-17.19,4.12-5.24-1.86-8.37-7.3-8.69-12.56-.59-9.89,4.03-18.95,12.21-25.1,5.18-3.88,12.95-6.25,18.94-2.48,1.07.65,1.95,1.56,2.54,2.66.6,1.1.89,2.33.85,3.58-.09,1.53-.56,3.01-1.37,4.32-.81,1.3-1.93,2.38-3.25,3.15-2.13,1.19-7.44,1.12-7.98-1.9,2.49-1.49,6.42-4.01,5.13-7.47-.38-1.04-1.47-1.4-2.37-1.47-5.32-.3-9.19,5.29-11.4,9.44-2.98,5.62-6.18,13.44-2.08,19.62,1.69,2.55,4.89,3.15,7.99,2.54,3.88-.76,8.49-2.74,10.13-6.57l12.54-29.3,8.77-.19-6.04,14.96c2.47-1.68,6.28-4.64,10.24-2.42,3.84,2.15.83,6.82-.36,9.71l-3.87,9.38c-.2.42-.31.88-.33,1.35-.02.47.06.93.22,1.37,1.13,2.48,4.8.52,5.5-1.14l8.73-21.03,8.83-.19-8.45,20.29c-.15.33-.24.7-.24,1.07,0,.37.07.73.22,1.07.23.36.59.63,1,.76.41.13.85.11,1.25-.06,1.56-.59,2.96-4.76,3.01-4.88l7.56-18.35,9.03-.2-8.53,20.53c-.17.38-.24.8-.21,1.22.04.42.18.82.42,1.17.2.28.47.5.78.64.31.14.66.18,1,.14,1.5-.24,3.06-1.11,3.7-2.65l8.8-21.17,8.37-.18-.52,1.6c2.78-1.17,6.37-3.08,9.14-.91,3.73,2.92,1.6,9.09.66,12.8,5.78-3.86,9.25-16.03,19.79-14.24.69.17,1.33.49,1.88.93.55.45.99,1.01,1.3,1.65l1.01-2.57,8.83-.19s-6.38,15.49-9.39,23.22h0ZM160.47,87.01c-.49,1.18-2.06,1.77-3.43,1.19-.23-.09-.44-.24-.6-.43-.16-.19-.26-.42-.31-.67-.12-4.1,1.9-7.85,3.62-11.44.91-1.93,2.09-4.78,4.54-5.08,1.88-.24,2.42,1.38,1.83,2.83l-5.65,13.59h0ZM130.46,88.62c-.84.5-2.1.08-2.32-.83-.2-.82.22-1.76.56-2.55l5.19-12.46c.75-1.81,3.81-2.08,4.1-.5.68,3.78-4.17,14.45-7.51,16.34Z"/>
      <path class="cls-3" d="M198.61,140.48c-2.68,6.85-7.61,12.57-13.98,16.25-6.37,3.67-13.79,5.07-21.06,3.97,1.44,7.22.37,14.71-3.03,21.23-3.4,6.53-8.92,11.7-15.65,14.66-6.74,2.96-14.28,3.54-21.39,1.63-7.11-1.9-13.35-6.18-17.7-12.11-4.08,6.12-10.14,10.66-17.15,12.88-7.02,2.21-14.58,1.97-21.44-.7-6.86-2.67-12.6-7.59-16.28-13.97-3.68-6.37-5.07-13.81-3.95-21.08-7.22,1.44-14.71.38-21.24-3.02-6.53-3.4-11.7-8.92-14.67-15.66-2.96-6.74-3.54-14.28-1.63-21.39,1.91-7.11,6.19-13.35,12.12-17.7-6.12-4.08-10.67-10.13-12.88-17.15-2.22-7.02-1.97-14.58.7-21.44,2.67-6.86,7.6-12.6,13.97-16.28,6.37-3.68,13.81-5.07,21.08-3.94-1.44-7.22-.37-14.71,3.03-21.23,3.4-6.53,8.92-11.7,15.65-14.66,6.73-2.96,14.28-3.54,21.39-1.63,7.11,1.91,13.35,6.18,17.7,12.11,4.09-6.12,10.14-10.66,17.15-12.87,7.02-2.21,14.58-1.96,21.43.7,6.86,2.67,12.6,7.59,16.27,13.97,3.68,6.37,5.07,13.81,3.95,21.08,7.22-1.44,14.71-.38,21.24,3.02,6.53,3.4,11.7,8.92,14.67,15.65,2.96,6.74,3.54,14.28,1.63,21.39-1.91,7.11-6.18,13.35-12.12,17.7,6.1,4.1,10.64,10.15,12.85,17.16,2.21,7.01,1.98,14.57-.67,21.43ZM201.74,60.69c-3-6.77-7.92-12.52-14.16-16.51-6.24-3.99-13.52-6.06-20.92-5.94-.19-7.41-2.56-14.59-6.82-20.66-4.26-6.06-10.22-10.73-17.12-13.42-6.91-2.69-14.45-3.27-21.69-1.68-7.24,1.59-13.84,5.29-18.99,10.62-5.37-5.1-12.13-8.5-19.43-9.77-7.3-1.27-14.81-.36-21.59,2.62-6.78,2.98-12.53,7.9-16.52,14.15-3.99,6.24-6.05,13.52-5.92,20.93-7.41.19-14.59,2.56-20.66,6.82-6.06,4.26-10.73,10.22-13.42,17.13-2.69,6.91-3.27,14.45-1.68,21.69,1.59,7.24,5.28,13.84,10.62,18.99-5.11,5.37-8.51,12.13-9.78,19.43-1.27,7.3-.36,14.81,2.62,21.6,2.98,6.78,7.91,12.53,14.15,16.53,6.24,3.99,13.53,6.05,20.94,5.92.19,7.41,2.57,14.59,6.83,20.65,4.26,6.06,10.22,10.73,17.13,13.41,6.91,2.69,14.45,3.27,21.69,1.68,7.24-1.59,13.84-5.28,18.99-10.62,5.37,5.1,12.13,8.5,19.43,9.78,7.3,1.27,14.81.36,21.59-2.62,6.78-2.98,12.53-7.91,16.52-14.15,3.99-6.24,6.05-13.52,5.92-20.93,7.41-.19,14.6-2.56,20.66-6.82,6.06-4.26,10.73-10.22,13.42-17.13,2.69-6.91,3.27-14.45,1.68-21.69-1.59-7.24-5.28-13.84-10.62-18.99,5.09-5.38,8.48-12.14,9.76-19.43,1.27-7.3.37-14.8-2.6-21.59"/>
    </g>
  </g>
</svg>